<?xml version="1.0" encoding="utf-8"?>
<!-- Generator: Adobe Illustrator 22.1.0, SVG Export Plug-In . SVG Version: 6.00 Build 0)  -->
<svg version="1.1" id="Calque_1" xmlns="http://www.w3.org/2000/svg" xmlns:xlink="http://www.w3.org/1999/xlink" x="0px" y="0px"
	 viewBox="0 0 800 400" style="enable-background:new 0 0 800 400;" xml:space="preserve">
<style type="text/css">
	.st0{fill:#FFFFFF;}
	.st1{fill:#000429;}
</style>
<g>
	<g>
		<path class="st0" d="M368.5,194.1c1.8,4.4,2.7,6.6,4.5,11c0.5,1.2,1.5,1.5,3,1.1c4.5-1.3,6.7-2,11.2-3.3c1-0.3,1.8-1.4,1.8-2.4
			c0-0.4,0-0.7-0.1-0.8c-6.7-16.5-13.5-33.1-20.2-49.6c-0.6-1.5-1.8-2-3.5-1.5c-2,0.6-3,0.9-5.1,1.5c-3.4,1-5.1,1.5-8.4,2.4
			c-10.8,3.1-16.1,4.6-26.9,7.5c-1.1,0.3-2,1.4-2,2.5c0,1.1,0.9,1.7,2,1.4c9.2-2.5,13.7-3.8,22.9-6.4c-6.4,19.4-12.8,38.8-19.2,58.1
			c-5.6,1.5-8.4,2.3-14.1,3.8c-1.1,0.3-2,1.4-2,2.5c0,1.1,0.9,1.7,2,1.4c6.1-1.6,9.2-2.5,15.3-4.1c1.3-0.4,1.9-0.5,3.2-0.9
			c3.2-0.9,4.8-1.3,8-2.2c1.5-0.4,2.4-1.3,3-2.7c0.5-1.5,0.7-2.2,1.2-3.6c0.5-1.5,0.4-2.6-0.2-3.4c-0.6-0.7-1.3-1.1-2.3-1
			c1.2-0.3,1.8-0.5,3-0.8C353.4,202.3,361.2,198.9,368.5,194.1z M350.6,190.6c3.1-9.9,4.7-14.9,7.8-24.9c1.7,4.4,2.5,6.6,4.2,10.9
			c-2.6,0.7-3.9,1.1-6.4,1.8c-1.1,0.3-2,1.4-2,2.5c0,1.1,0.9,1.7,2,1.4c3.1-0.9,4.7-1.3,7.8-2.2c0.4,1.1,0.6,1.7,1.1,2.8
			C361.1,186.3,355.1,189.1,350.6,190.6z"/>
		<path class="st0" d="M421.8,113.1c-7.3,2.2-10.9,3.2-18.2,5.4c-6.8,2-10.2,3-17.1,5c-1.1,0.3-2,1.5-2,2.5c0,1.1,0.9,1.7,2,1.4
			c4.1-1.2,6.2-1.8,10.4-3.1c-0.6,1.2-0.9,2.5-0.9,3.8c0,8.3,0,12.5,0,20.8c-7.1,2.1-10.6,3.1-17.7,5.2c-1.1,0.3-2,1.5-2,2.5
			c0,1.1,0.9,1.7,2,1.4c7.1-2.1,10.6-3.1,17.7-5.2c0,10.5,0,15.7,0,26.2c0,1,1.2,1.7,2.2,1.4c4.8-1.4,7.2-2.1,11.9-3.5
			c0.6-0.2,1.1-0.5,1.6-1.1c0.4-0.5,0.6-1.1,0.6-1.7c0-1.8,0-2.7,0-4.5c6.3-1.9,9.4-2.8,15.7-4.6c0.9,1.5,1.3,2.2,2.2,3.6
			c0.7,1.3,1.8,1.7,3.5,1.2c4.9-1.4,7.4-2.2,12.3-3.6c0.4-0.1,0.9-0.4,1.3-0.9c0.3-0.4,0.5-0.9,0.5-1.4c0-0.3-0.1-0.6-0.3-0.9
			c-4.4-6.7-6.6-10-11-16.6c-0.2-0.2-0.3-0.4-0.2-0.9c0-0.4,0.3-0.9,0.7-1.2c6-5.3,9.1-12.1,9.3-18.9c0.5-13.9-14-16.5-24.4-12.7
			C421.9,113.1,421.8,113.1,421.8,113.1z M412.2,166.1c0-2.4,0-3.6,0-6c0-1-0.4-2-1.2-2.8c-0.9-0.7-2-0.9-3.5-0.5
			c4.6-1.3,6.8-2,11.4-3.4c1-0.3,1.8-0.1,2.3,0.7c1.9,3.1,2.8,4.7,4.7,7.8C420.5,163.6,417.7,164.4,412.2,166.1z M429.3,128.5
			c-4.6,1.4-6.9,2-11.5,3.4c-1.1,0.3-2,1.5-2,2.5c0,1.1,0.9,1.7,2,1.4c4.6-1.4,6.9-2,11.6-3.4c-0.7,3.7-3.6,6.2-7.5,7.4
			c-3,0.9-4.5,1.3-7.6,2.2c-0.8,0.2-1.4,0.1-1.8-0.2c-0.5-0.4-0.8-0.9-0.8-1.6c0-2.8,0-4.2,0-7c0-2.6-2.3-3.9-4.8-3.2
			c6-1.8,9-2.7,15-4.4c2.3-0.7,4.1-0.6,5.6,0.2C428.4,126.3,429,127.3,429.3,128.5z"/>
		<path class="st0" d="M403.4,247.7c0.4-0.5,0.6-1,0.6-1.7c0-3.7,0-5.5,0-9.1c0-1.5-0.8-2-2.3-1.6c-8.4,2.5-12.5,3.7-20.9,6.1
			c0-3,0-4.4,0-7.4c0-2.6-2.2-4.1-4.8-3.3c10.4-3.1,20.9-6.1,31.3-9.2c0.6-0.2,1.1-0.5,1.6-1.1c0.4-0.5,0.7-1.1,0.7-1.7
			c0-3.7,0-5.5,0-9.2c0-1.1-1.1-1.9-2.3-1.6c-10.8,3.2-21.6,6.4-32.4,9.5c-1,0.3-1.5,0.4-2.5,0.7c-7.3,2.1-10.9,3.2-18.2,5.2
			c-1.1,0.3-2,1.4-2,2.5c0,1.1,0.9,1.7,2,1.4c4.6-1.3,7-2,11.6-3.3c-0.6,1.3-1,2.7-1,3.9c0,8.4,0,12.7,0,21.1
			c-3.4,1-5.1,1.5-8.5,2.4c-1.1,0.3-2,1.4-2,2.5s0.9,1.7,2,1.4c3.4-1,5.1-1.5,8.5-2.4c0,10.4,0,15.5,0,25.9c0,1.3,0.9,1.9,2.2,1.5
			c4.6-1.3,6.9-2,11.6-3.4c0.7-0.2,1.2-0.5,1.6-1.1c0.4-0.6,0.6-1.1,0.6-1.7c0-5.8,0-8.8,0-14.6c0-2.5-2.3-3.9-4.8-3.2
			c10.3-3,15.4-4.5,25.7-7.5C402.5,248.6,403,248.2,403.4,247.7z"/>
		<path class="st0" d="M421,245.9c4.9-1.5,7.4-2.2,12.4-3.6c0.7-0.2,1.2-0.6,1.6-1.2c0.4-0.6,0.6-1,0.6-1.7c0-18.8,0-37.5,0-56.3
			c0-0.6-0.2-1.1-0.6-1.4c-0.3-0.3-0.9-0.4-1.6-0.1c-2.8,0.8-4.2,1.2-7,2c-4.3,1.3-7.6,5.5-7.6,9.8c0,11.1,0,16.6,0,27.6
			c-5.6,1.6-8.4,2.5-13.9,4.1c-1.1,0.3-2,1.5-2,2.5c0,1.1,0.9,1.7,2,1.4c5.6-1.6,8.4-2.5,13.9-4.1c0,7.7,0,11.6,0,19.3
			C418.8,245.4,420,246.2,421,245.9z"/>
		<path class="st0" d="M526.9,214.1c0-18.8,0-37.5,0-56.3c0-0.6-0.2-1.1-0.6-1.4c-0.3-0.3-0.9-0.4-1.6-0.2c-2.8,0.7-4.2,1.1-7,1.8
			c-4.3,1.1-7.6,5.3-7.6,9.5c0,1.4,0,2.1,0,3.5c-6.4,1.7-9.7,2.6-16.1,4.3c-1.1,0.3-2,1.4-2,2.5c0,1.1,0.9,1.7,2,1.4
			c6.4-1.8,9.7-2.6,16.1-4.3c0,6.1,0,9.2,0,15.3c-3.4,0.9-5.1,1.3-8.4,2.2c-1.1,0.3-2,1.4-2,2.5c0,1.1,0.9,1.7,2,1.4
			c3.4-0.9,5.1-1.4,8.4-2.2c0,9.7,0,14.5,0,24.2c0,1,1.1,1.9,2.2,1.6c4.9-1.3,7.4-1.9,12.4-3.2c0.7-0.2,1.2-0.6,1.6-1.1
			C526.7,215.2,526.9,214.7,526.9,214.1z"/>
		<path class="st0" d="M589.4,199.2c-1.2,0.2-1.7,0.3-2.9,0.6c-0.1,0-0.1,0-0.2,0c-8.3,1.6-12.4,2.5-20.7,4.2c-1.1,0.2-2,1.3-2,2.4
			c0,1.1,0.9,1.8,2,1.5c3.2-0.7,4.8-1,8.1-1.7c-1.7,4.6-4.7,7-9.7,8.1c-6.5,1.4-9.9-1.5-10.2-8.7c-0.1-1.6-0.1-4.2-0.1-7.4
			c0-3.2,0-5.7,0.1-7.2c0.3-7.3,3.7-11.8,10.2-13.2c5.7-1.3,8.7,0.3,10.3,5.5c0.3,0.8,0.6,1.4,1,1.5c0.3,0.3,1,0.3,1.7,0.2
			c4.9-1,7.4-1.5,12.4-2.4c0.5-0.1,1-0.4,1.4-0.8c0.3-0.4,0.5-0.9,0.5-1.4c-0.2-14.6-15.3-18.1-27.3-15.6
			c-6.8,1.4-12.8,4.4-17.5,8.5c-5.6,1.3-8.4,2-14,3.4c-1.1,0.3-2,1.4-2,2.4c0,1.1,0.9,1.7,2,1.5c3.8-0.9,5.7-1.4,9.6-2.3
			c-3.1,4.5-5,10-5.2,16.3c-0.1,1.7-0.1,4.3-0.1,7.9c0,3.6,0,6.1,0.1,7.6c0.2,3.5,0.7,6.6,1.8,9.1c-1.2,0.3-1.8,0.4-3,0.7
			c-1.1,0.3-2,1.4-2,2.4c0,1.1,0.9,1.7,2,1.5c2-0.5,3-0.7,5.1-1.2c0.5,0.6,1,1.2,1.5,1.7c-5.8,1.4-8.7,2.1-14.5,3.5
			c-1.1,0.3-2,1.4-2,2.5c0,1.1,0.9,1.7,2,1.5c7.6-1.9,11.4-2.8,19.1-4.6c4.5,1.8,10.5,1.8,17.1,0.3c12.3-2.8,27.5-12.2,27.3-26.7
			c0-0.5-0.2-0.9-0.5-1.2C590.4,199.2,590,199.1,589.4,199.2z"/>
		<path class="st0" d="M651.2,190.2c-6-7.3-12.1-14.7-18.2-21.9c-0.5-0.4-0.7-0.6-1.1-1c-1.9-1.7-7.3-2.5-7.3-2.5s6.3-2.7,7.7-5
			c0.4-0.6,0.8-1,0.9-1.2c0.1-0.1,0.3-0.5,0.9-1.2c0.4-0.7,1-1.4,1.8-2.5c1.8-2.8,3.7-5.5,5.7-8.2c2.3-3.3,5-7.1,8-11.4
			c0.3-0.1,0.3-0.5,0.3-1.1c0-0.4-0.2-0.9-0.5-1.2c-0.4-0.3-0.9-0.4-1.3-0.4c-5.3,0.6-7.9,0.9-13.2,1.6c-1.6,0.2-2.7,0.9-3.4,2.1
			c-0.6,0.9-0.9,1.3-1.5,2.1c-3.8,0.5-5.7,0.8-9.4,1.4c-1.1,0.2-2,1.2-2,2.3c0,1.1,0.9,1.8,2,1.7c2.5-0.4,3.8-0.6,6.3-0.9
			c-4.1,5.7-6.1,8.5-10.2,14.2c-0.3,0-0.4-0.1-0.4-0.4c0-7,0-10.5,0-17.6c0-1.3-0.9-2-2.2-1.8c-2.5,0.4-3.8,0.6-6.3,1
			c-4.2,0.7-7.5,4.6-7.5,8.8c0,12.5,0,25.1,0,37.6c-2.8,0.5-4.1,0.7-6.9,1.3c-1.1,0.2-2,1.2-2,2.3c0,1.1,0.9,1.8,2,1.6
			c2.8-0.5,4.1-0.8,6.9-1.3c0,1,0,1.5,0,2.5c-5.6,1-8.4,1.5-14,2.6c-1.1,0.2-2,1.3-2,2.3c0,1.1,0.9,1.8,2,1.6
			c5.6-1.1,8.4-1.6,14-2.6c0,1.2,0,1.8,0,3.1c0,0.6,0.3,1.1,0.7,1.4c0.4,0.4,0.9,0.5,1.5,0.3c4.6-0.8,6.9-1.2,11.6-1.9
			c0.6-0.1,1.1-0.4,1.6-0.9c0.4-0.4,0.6-1,0.6-1.6c0-7.7,0-11.6,0-19.3c0-0.2,0.1-0.4,0.5-0.4c0.1,0,0.2,0,0.3-0.1
			c0.1,0.2,0.4,0.5,1,1.1c0.4,0.5,1,1.2,1.7,2c0.7,0.9,1.5,1.7,2.3,2.6c0.8,0.9,1.9,2.2,3.2,3.6c1.7,2,3.6,4.1,5.7,6.5
			c-4,0.5-6,0.8-10.1,1.4c-1.1,0.2-2,1.2-2,2.3c0,1.1,0.9,1.8,2,1.7c6.1-0.9,9.2-1.3,15.3-2.1c2.2-0.3,3.2-0.4,5.4-0.7
			c3.3-0.4,4.9-0.6,8.2-0.9c0.5-0.1,1-0.3,1.4-0.7c0.3-0.4,0.5-0.8,0.5-1.3C651.6,190.7,651.5,190.3,651.2,190.2z"/>
		<path class="st0" d="M710,148.6c-0.4-0.3-0.9-0.5-1.3-0.5c-4.6,0-6.8,0.1-11.4,0.2c-1.3,0-2.4,0.7-3.1,2c-0.1,0.3-0.3,0.5-0.4,0.8
			c-7.4,0.2-11.2,0.4-18.6,0.9c-1.1,0.1-2,1-2,2.1c0,1.1,0.9,1.9,2,1.8c6.6-0.4,9.8-0.6,16.4-0.8c-1,1.8-1.9,3.4-2.7,5
			c-3,0.1-4.4,0.2-7.4,0.4c-1.1,0.1-2,1-2,2.1c0,1.1,0.9,1.9,2,1.9c2.1-0.1,3.2-0.2,5.3-0.3c-0.1,0.2-0.2,0.3-0.3,0.5
			c-0.7,1.3-1.3,2.5-1.8,3.5c-0.6,1-1,1.9-1.4,2.5c-0.4,0.7-0.6,1.2-1.5,1.3c-0.1-0.1-0.3-0.5-0.6-1.1c-0.4-0.6-0.9-1.3-1.3-2.3
			c-0.5-0.9-1-1.9-1.7-2.9c-0.6-1-1.5-2.5-2.4-4.2c-1.6-2.9-3.6-6.2-5.7-9.8c-0.3-0.6-0.6-1.1-1.2-1.4c-0.6-0.2-1.3-0.3-1.9-0.3
			c-4.6,0.4-6.8,0.6-11.4,1c-1,0.1-1.8,1.1-1.8,2c0,0.3,0.1,0.7,0.3,0.9c1.4,2.5,2.1,3.8,3.6,6.3c-5.7,0.5-8.5,0.8-14.2,1.5
			c-1.1,0.1-2,1.1-2,2.2c0,1.1,0.9,1.9,2,1.7c6.5-0.8,9.8-1.1,16.3-1.7c5,8.9,7.5,13.3,12.5,22.3c-3.9,0.3-5.9,0.4-9.8,0.8
			c-1.1,0.1-2,1.1-2,2.1c0,1.1,0.9,1.9,2,1.8c4.6-0.4,6.8-0.6,11.4-0.9c0.2,0.8,0.2,1.6,0.2,2.4c0,6.2,0,9.3,0,15.5
			c0,1.3,0.9,2.1,2.2,2c4.7-0.3,7.1-0.4,11.8-0.6c0.7,0,1.2-0.2,1.7-0.7c0.4-0.4,0.6-0.9,0.6-1.6c0-6.3,0-9.4,0-15.7
			c0-0.8,0.1-1.7,0.3-2.6c0.2-0.9,0.4-1.7,0.9-2.5c0.1-0.2,0.4-0.8,1-2c0.6-1.1,1.3-2.4,2.1-4c2.1-4.1,4.4-8.3,6.5-12.3
			c2.7-5,5.7-10.7,9.1-17c0.2-0.3,0.3-0.6,0.3-1C710.5,149.4,710.4,149,710,148.6z"/>
		<path class="st0" d="M182.1,317.3c0-1.5-0.8-2.2-2.3-2c-2.6,0.3-3.9,0.5-6.4,0.8c-4.1,0.5-7.6,4.2-7.6,8.4c0,0.8,0,1.2,0,2
			c-5.7,0.6-8.5,0.8-14.2,1.3c-1.1,0.1-2,1-2,2.1s0.9,1.9,2,1.8c5.7-0.4,8.5-0.7,14.2-1.3c0,0.5,0,0.8,0,1.4c-3.3,0.3-5,0.5-8.3,0.8
			c-1.1,0.1-2,1-2,2.1c0,1.1,0.9,1.9,2,1.8c3.3-0.3,5-0.4,8.3-0.8c0,0.3,0,0.4,0,0.7c0,1.3-0.7,2-1.7,2.7c-5.5,2.9-10.2,3.9-16,4.4
			c-0.4,0-1-0.1-1.7-0.5c-0.7-0.3-1-1-1-1.9c0-8.1,0-12.1,0-20.2c0-1.5-0.8-2.2-2.3-2.1c-2.6,0.2-3.9,0.2-6.4,0.4
			c-4.2,0.2-7.6,3.7-7.6,7.9c0,16.4,0,32.8,0,49.2c-7,0.3-10.5,0.3-17.5,0.4c-1.1,0-2,0.9-2,2s0.9,2,2,2c7.9,0,11.8-0.1,19.7-0.4
			c0.4,0,0.6,0,1,0c4.4-0.2,6.5-0.3,10.9-0.6c0.7,0,1.2-0.3,1.7-0.7c0.4-0.4,0.6-0.9,0.6-1.6c0-6.6,0-10,0-16.6c0-1.1-0.3-2.2-1.1-3
			c-0.8-0.7-1.8-1.2-3-1.3c0.8,0,1.1-0.1,1.9-0.1c0.8,0,1.8,0,3-0.1c5.5-0.4,10.9-1.3,16.2-3.2c0.3-0.1,0.6-0.2,0.9-0.3
			c0.6-0.1,1.2,0.1,1.8,0.4c0.5,0.4,0.8,1,0.8,1.8c0,3.2,0,4.8,0,8c-4.9,0.5-7.4,0.7-12.3,1.1c-1.1,0.1-2,1-2,2.1s0.9,1.9,2,1.8
			c4.9-0.4,7.4-0.6,12.3-1.1c0,3.5,0,5.2,0,8.7c0,1.2,1,2.1,2.3,1.9c4.7-0.5,7-0.8,11.7-1.3c0.7-0.1,1.2-0.3,1.7-0.8
			c0.4-0.4,0.6-0.9,0.6-1.6C182.1,354.8,182.1,336,182.1,317.3z"/>
		<path class="st0" d="M243.8,323.5c-2.6,0.5-3.9,0.8-6.5,1.3c-2.8,0.6-5.7,2.8-6.8,5.5c-0.5,1.1-0.8,2.2-0.8,3.4
			c0,6.3,0,9.5,0,15.8c-3.1,0.6-4.7,0.9-7.9,1.5c-1.1,0.2-2,1.2-2,2.3c0,1.1,0.9,1.8,2,1.6c3.1-0.6,4.7-0.9,7.9-1.5c0,2.7,0,4,0,6.7
			c-4.9,0.9-7.3,1.4-12.2,2.2c-1.1,0.2-2,1.2-2,2.3c0,1.1,0.9,1.8,2,1.6c4.9-0.8,7.3-1.3,12.2-2.2c-0.1,6.5-3,11-9.8,12.2
			c-6.9,1.2-9.8-2.4-9.8-9c0-11.7,0-23.5,0-35.2c0-1.3-1-2-2.3-1.8c-2.6,0.4-3.9,0.6-6.5,1c-0.8,0.1-1.7,0.4-2.5,0.8
			c-1,0.5-1.7,1.1-2.4,1.8c-0.8,0.7-1.4,1.6-1.8,2.6c-0.5,1-0.8,2.1-0.8,3.3c0,10,0,20.1,0,30.1c0,4.6,0.8,8.3,2.4,11.3
			c-4.8,0.7-7.2,1-12,1.6c-1.1,0.1-2,1.1-2,2.2c0,1.1,0.9,1.9,2,1.7c5.8-0.7,8.7-1.1,14.4-2c4.5,4.9,12,6.5,21.5,4.7
			c14.6-2.6,26.4-13,26.1-28.9c0-11.8,0-23.6,0-35.4C246,323.9,245.1,323.2,243.8,323.5z"/>
		<path class="st0" d="M317.2,347.3c0.4-0.5,0.6-1,0.6-1.6c0-18.8,0-37.5,0-56.3c0-0.7-0.2-1.2-0.6-1.5c-0.4-0.2-1-0.3-1.6-0.1
			c-3.9,1-5.9,1.6-9.8,2.6c-1.4,0.4-2.4,1.2-3.1,2.6c-2.7,5.3-4.1,8-6.8,13.3c-2.5,0.6-3.7,0.9-6.1,1.5c-1.1,0.3-2,1.4-2,2.4
			s0.9,1.7,2,1.5c1.5-0.4,2.3-0.6,3.8-1c-2.5,4.9-3.8,7.3-6.3,12.1c-5.8-9-8.7-13.5-14.4-22.5c-0.7-1.1-1.7-1.4-3.1-1.1
			c-1.9,0.5-2.9,0.7-4.9,1.1c-3.7,0.8-7.1,5.1-7.1,8.8c0,0.9,0,1.3,0,2.2c-5.8,1.3-8.7,1.9-14.5,3.1c-1.1,0.2-2,1.3-2,2.4
			s0.9,1.8,2,1.6c5.8-1.2,8.7-1.8,14.5-3.1c0,15,0,30.1,0,45.1c0,0.6,0.2,1.1,0.6,1.3c0.4,0.3,1,0.4,1.6,0.3c4.4-1,6.6-1.5,11-2.5
			c1.1-0.3,2.3-1.4,2.3-2.6c0.3-10,0.6-20.1,0.9-30.1c3.3,5.4,5,8.1,8.4,13.5c0.8,1.1,1.8,1.6,3,1.3c1.9-0.5,2.8-0.7,4.7-1.2
			c1.3-0.3,2.3-1.3,3-2.8c3.5-7.2,5.3-10.8,8.9-18c0.3-0.1,0.4,0.1,0.4,0.3c0,8.7,0,13,0,21.7c-3.7,0.9-5.5,1.4-9.2,2.3
			c-1.1,0.3-2,1.4-2,2.5c0,1.1,0.9,1.7,2,1.5c3.7-0.9,5.5-1.4,9.2-2.3c0,1.6,0,2.5,0,4.1c0,1,1.2,1.8,2.2,1.5
			c4.4-1.1,6.6-1.7,11-2.9C316.2,348.1,316.7,347.8,317.2,347.3z"/>
		<path class="st0" d="M365.1,295.1c-0.6-1.5-1.8-2-3.5-1.5c-5.4,1.6-8.1,2.3-13.5,3.9c0,0-0.1,0-0.1,0c0,0,0,0-0.1,0
			c-8.3,2.3-12.4,3.5-20.7,5.7c-1.1,0.3-2,1.4-2,2.5c0,1.1,0.9,1.7,2,1.4c6.7-1.8,10.1-2.8,16.8-4.7c-6.2,18.7-12.3,37.3-18.5,56
			c-3.8,1-5.7,1.5-9.5,2.6c-1.1,0.3-2,1.4-2,2.5c0,1.1,0.9,1.7,2,1.4c3.3-0.9,4.9-1.3,8.2-2.2c0,0,0,0.1,0,0.1
			c0,0.4,0.2,0.8,0.5,1.2c0.4,0.2,0.9,0.3,1.3,0.2c4.5-1.2,6.7-1.8,11.2-3.1c1.5-0.4,2.4-1.3,3-2.7c0.5-1.5,0.7-2.2,1.2-3.6
			c0.5-1.5,0.4-2.6-0.2-3.4c-0.6-0.7-1.3-1.1-2.3-1c1.2-0.3,1.8-0.5,3-0.8c7.7-2.1,15.5-5.5,22.7-10.3c1.8,4.4,2.7,6.6,4.5,11
			c0.5,1.2,1.5,1.5,3,1.1c4.5-1.3,6.7-2,11.2-3.3c1-0.3,1.8-1.4,1.8-2.4c0-0.4,0-0.7-0.1-0.8C378.6,328.2,371.8,311.6,365.1,295.1z
			 M347,335.6c3.1-9.9,4.7-14.9,7.8-24.8c1.9,5,2.9,7.5,4.8,12.4c-3,0.9-4.5,1.3-7.6,2.2c-1.1,0.3-2,1.4-2,2.5s0.9,1.7,2,1.4
			c3.6-1,5.4-1.5,8.9-2.6c0.2,0.5,0.3,0.7,0.5,1.2C357.6,331.3,351.5,334.1,347,335.6z"/>
		<path class="st0" d="M440.9,312c0.6-0.2,1.1-0.6,1.6-1.2c0.4-0.6,0.6-1.2,0.6-1.7c0-18.7,0-37.4,0-56.1c0-0.6-0.2-1.1-0.6-1.5
			c-0.4-0.3-1-0.3-1.6-0.2c-2.2,0.7-3.3,1-5.6,1.6c-2.2,0.6-4.2,2.1-5.5,3.9c-5.2,1.5-7.8,2.3-12.9,3.8c-1.1,0.3-2,1.5-2,2.5
			c0,1.1,0.9,1.7,2,1.4c4.4-1.3,6.6-1.9,10.9-3.2c-0.1,0.5-0.1,0.9-0.1,1.4c-0.3,10.1-0.5,15.2-0.8,25.3c-0.1-0.1-0.4-0.6-1-1.3
			c-0.6-0.8-1.3-1.7-2.2-2.8c-0.9-1-1.7-2.2-2.7-3.5c-0.9-1.2-2.4-2.9-4-5c-2.7-3.5-5.8-7.4-9.2-11.7c-1.4-1.5-2.5-2-5-1.2
			c-1.1,0.3-1.7,0.5-2.9,0.8c-4.2,1.2-7.6,5.6-7.6,9.8c0,3.4,0,5.1,0,8.5c-7.2,2.1-10.8,3.2-18,5.3c-1.1,0.3-2,1.4-2,2.5
			c0,1.1,0.9,1.7,2,1.4c7.2-2.1,10.8-3.2,18-5.3c0,0.8,0,1.2,0,2c-4.7,1.4-7.1,2.1-11.8,3.5c-1.1,0.3-2,1.5-2,2.5s0.9,1.7,2,1.4
			c4.7-1.4,7.1-2.1,11.8-3.5c0,10.9,0,21.7,0,32.6c0,1,1.1,1.8,2.2,1.5c4.4-1.3,6.6-2,11-3.3c1.2-0.4,2.3-1.6,2.3-2.8
			c0.3-9.8,0.6-19.6,0.9-29.4c0.1,0.1,0.4,0.6,1,1.3c0.6,0.8,1.3,1.6,2.2,2.7c0.9,1,1.9,2.2,2.8,3.4c1,1.2,2.4,3,4,5
			c0.7,0.9,1.5,1.8,2.2,2.7c-4,1.2-5.9,1.8-9.9,2.9c-1.1,0.3-2,1.5-2,2.5s0.9,1.7,2,1.4c5-1.5,7.5-2.2,12.4-3.7c1,1.2,2,2.5,3.1,3.8
			c-3.3,1-5,1.5-8.3,2.5c-1.1,0.3-2,1.5-2,2.5c0,1.1,0.9,1.7,2,1.4c5.1-1.5,7.7-2.3,12.8-3.8c3.2-0.9,4.7-1.4,7.9-2.3
			C439.7,312.3,440.1,312.2,440.9,312z"/>
		<path class="st0" d="M482.1,282.4c-4.6,0.5-8,0.3-9.7-0.1c-1.7-0.5-2.6-1.5-2.6-3.2c0-1,0.3-2,0.7-2.8c1.6-2.6,4.4-3.8,7-4.5
			c2-0.6,3.8-0.6,5.4-0.3c0.4,0.1,0.8,0.3,1.1,0.5c-3.9,1.1-5.8,1.6-9.7,2.7c-1.1,0.3-2,1.4-2,2.5c0,1.1,0.9,1.7,2,1.4
			c8.3-2.3,12.4-3.5,20.7-5.7c0.1,0,0.1,0,0.2-0.1c2.2-0.6,3.3-0.9,5.6-1.5c0.4-0.1,0.9-0.4,1.3-1c0.3-0.5,0.5-1,0.5-1.4
			c-0.4-6.9-6.9-10.6-13-11.4c-3.9-0.3-7.9,0.2-12,1.3c-6.7,1.9-13.9,5.7-18.7,11.2c-3.7,1.1-5.5,1.6-9.2,2.7c-1.1,0.3-2,1.4-2,2.5
			c0,1.1,0.9,1.7,2,1.4c2.3-0.7,3.5-1,5.8-1.7c-1.4,2.8-2.3,5.9-2.3,9.3c0.1,13.8,15.7,13.2,25.7,12.1c1.3,0,2.5,0,3.5,0.1
			c2.2,0.2,4.5,0.3,5.2,2.3c-4.1,1.1-6.1,1.7-10.2,2.8c-1.1,0.3-2,1.4-2,2.5c0,1.1,0.9,1.7,2,1.4c3.8-1.1,5.7-1.6,9.5-2.6
			c0,0.1-0.1,0.1-0.1,0.2c-0.7,1-1.5,1.7-2.4,2.3c-1.8,1.4-4.2,2.1-6.2,2.7c-3.9,1.1-7.9,1.1-9.8-2c-0.6-0.4-1-0.7-1.5-0.8
			c-0.3,0-0.4-0.1-0.7-0.1c-0.3,0-0.6,0.1-1,0.2c-4.6,1.3-6.9,2-11.6,3.3c-0.5,0.2-1,0.5-1.3,0.9c-0.4,0.5-0.6,1-0.6,1.5
			c0,0.9,0.2,1.7,0.3,2.5c-6.5,1.9-9.7,2.8-16.2,4.7c-1.1,0.3-2,1.5-2,2.5s0.9,1.7,2,1.4c7-2.1,10.6-3.1,17.6-5.1
			c4.3,6.9,15.7,6.5,24.7,3.9c11.4-3.3,26.3-12.9,26.4-26.4C504.6,282.3,490.9,281.4,482.1,282.4z"/>
		<path class="st0" d="M290.7,100.7c10.6-2.6,15.8-4,26.4-6.8c2,11.2,3.9,22.5,5.9,33.7c-9.1,2.5-13.6,3.7-22.6,6
			c-1.1,0.3-2,1.4-2,2.5c0,1.1,0.9,1.7,2,1.5c9.3-2.4,14-3.6,23.3-6.1c1,5.6,1.5,8.4,2.4,14c0.4,1.7,1.6,2.4,3.5,1.8
			c3.5-1,5.2-1.4,8.7-2.4c1-0.3,1.7-0.7,2.1-1.3c0.6-0.6,1-1.2,1.1-1.8c3.6-10.1,5.4-15.2,9-25.3c3.3,8.2,4.9,12.3,8.2,20.5
			c0.2,0.6,0.5,0.9,1,1.2c0.4,0.3,1.1,0.4,2.1,0.1c3.5-1,5.3-1.5,8.8-2.5c1.9-0.6,3-1.8,3.5-3.8c3.1-19.4,6.1-38.8,9.2-58.2
			c0-0.2,0-0.3,0-0.5c0-0.4-0.2-0.8-0.5-1.1c-0.4-0.2-0.9-0.3-1.3-0.1c-4.5,1.3-6.8,2-11.3,3.3c-0.7,0.2-1.3,0.5-1.7,0.9
			c-0.5,0.4-0.9,1-1,1.8c-0.3,1.7-0.5,2.6-0.8,4.3c-9,2.6-13.6,3.9-22.6,6.5c-1.1,0.3-2,1.4-2,2.5c0,1.1,0.9,1.7,2,1.4
			c8.7-2.5,13.1-3.7,21.9-6.2c-1.8,9.7-2.6,14.5-4.4,24.2c-2.2-6.2-3.2-9.3-5.4-15.5c-0.5-1.4-1.5-1.9-2.9-1.5
			c-2.6,0.7-3.9,1.1-6.5,1.9c-1.4,0.4-2.3,1.4-2.9,3.2c-2.5,7.5-3.8,11.3-6.3,18.8c-1.7-9.8-3.3-19.7-5-29.5
			c-0.2-1.3-1.1-1.6-2.8-1.1c-1.5,0.4-2.3,0.6-3.8,1.1c-3,0.8-4.5,1.2-7.5,2c-9.3,2.5-18.5,4.9-27.8,7.2c-1.1,0.3-2,1.4-2,2.4
			C288.7,100.3,289.6,101,290.7,100.7z"/>
		<path class="st0" d="M381.7,57c4.6-1.3,6.8-2,11.4-3.4c-0.6,1.2-0.9,2.6-0.9,3.9c0,13.8,0,27.6,0,41.3c-2.2,0.6-3.3,1-5.5,1.6
			c-1.1,0.3-2,1.5-2,2.5c0,1.1,0.9,1.7,2,1.4c2.2-0.6,3.3-1,5.5-1.6c0,2.3,0,3.4,0,5.6c0,1,1.1,1.8,2.2,1.5
			c13.9-4.1,27.7-8.2,41.6-12.3c0.6-0.2,1.2-0.5,1.7-1.1c0.4-0.5,0.6-1,0.6-1.7c0-3.4,0-5.1,0-8.5c0-1.5-0.8-2-2.3-1.6
			c-10.2,3-15.2,4.5-25.4,7.5c-1.5,0.4-2.6-0.4-2.6-1.9c0-1.6,0-2.5,0-4.1c0-2.5-2.3-3.8-4.8-3.1c10.5-3.1,15.8-4.7,26.4-7.8
			c1.3-0.4,2.3-1.6,2.3-2.9c0-3.1,0-4.7,0-7.8c0-1.4-0.9-2-2.3-1.6c-7.6,2.2-11.4,3.4-19,5.6c-1.5,0.4-2.6-0.4-2.6-1.9
			c0-1.5,0-2.2,0-3.7c0-2.6-2.2-4.1-4.8-3.3c10.7-3.2,21.4-6.3,32.1-9.5c0.7-0.2,1.2-0.5,1.7-1.1c0.4-0.5,0.6-1,0.6-1.7
			c0-3.4,0-5.2,0-8.6c0-1.4-0.9-2-2.3-1.6c-7.3,2.1-11,3.2-18.3,5.4c-6.9,2-10.3,3.1-17.2,5.1c-7.2,2.1-10.9,3.2-18.1,5.3
			c-1.1,0.3-2,1.5-2,2.5C379.7,56.7,380.6,57.4,381.7,57z"/>
		<path class="st0" d="M450.2,127.3c2.8-0.8,4.2-1.2,7.1-2c-0.6,1.2-0.9,2.6-0.9,3.9c0,7.8,0,11.8,0,19.6c-2,0.6-2.9,0.8-4.9,1.4
			c-1.1,0.3-2,1.4-2,2.5c0,1.1,0.9,1.7,2,1.4c2-0.6,2.9-0.8,4.9-1.4c0,10.2,0,15.4,0,25.6c-6.7,1.9-10.1,2.9-16.8,4.9
			c-1.1,0.3-2,1.5-2,2.5c0,1.1,0.9,1.7,2,1.4c7.6-2.2,11.4-3.3,19-5.5c6.5-1.9,9.8-2.8,16.3-4.7c10.1-2.8,15.2-4.2,25.3-7
			c0.6-0.2,1.2-0.5,1.7-1.1c0.4-0.5,0.6-1,0.6-1.7c0-3.4,0-5.1,0-8.5c0-1.5-0.8-2.1-2.3-1.7c-10.2,2.7-15.2,4.1-25.4,7
			c-1.5,0.4-2.6-0.5-2.6-2c0-1.6,0-2.5,0-4.1c0-2.5-2.3-3.9-4.8-3.2c10.5-3,15.8-4.5,26.4-7.4c1.3-0.4,2.3-1.6,2.3-2.9
			c0-3.1,0-4.7,0-7.8c0-1.4-0.9-2-2.3-1.6c-7.6,2.1-11.4,3.1-19,5.3c-1.5,0.4-2.6-0.5-2.6-2c0-1.5,0-2.2,0-3.7
			c0-2.6-2.2-4.1-4.8-3.3c10.7-3,21.4-6,32.1-8.9c0.7-0.2,1.2-0.5,1.7-1.1c0.4-0.5,0.6-1,0.6-1.6c0-3.4,0-5.2,0-8.6
			c0-1.4-0.9-2-2.3-1.7c-5.6,1.5-8.4,2.3-13.9,3.8c-8.6,2.4-12.9,3.6-21.6,6.1c-5.5,1.6-8.2,2.4-13.7,4c-1.1,0.3-2,1.4-2,2.5
			C448.3,127,449.2,127.7,450.2,127.3z"/>
		<path class="st0" d="M467.1,240.1c0,1.1,0.9,1.7,2,1.4c3.8-1.1,5.6-1.6,9.4-2.7c1.5,1.9,3.2,3.9,4.8,6c0.7,0.9,1.7,1.2,3,0.8
			c3.9-1.1,5.9-1.6,9.8-2.7c0.6-0.2,1.1-0.6,1.6-1.1c0.4-0.6,0.6-1.2,0.6-1.7c0-18.7,0-37.4,0-56.1c0-0.6-0.2-1.1-0.6-1.5
			c-0.4-0.3-1-0.4-1.6-0.2c-2.2,0.6-3.3,0.9-5.6,1.5c-4.3,1.2-7.7,5.4-7.7,9.7c0,0.9,0,1.3-0.1,2.2c-3.2,0.9-4.8,1.3-7.9,2.2
			c-1.1,0.3-2,1.4-2,2.5c0,1.1,0.9,1.7,2,1.4c3.1-0.9,4.7-1.3,7.8-2.2c-0.2,7.7-0.4,11.5-0.6,19.1c-0.1-0.2-0.4-0.6-1-1.4
			c-0.6-0.8-1.3-1.7-2.2-2.8c-0.9-1.1-1.7-2.2-2.7-3.5c-0.9-1.2-2.4-2.9-4-5c-2.7-3.5-5.8-7.5-9.2-11.8c-1.4-1.5-2.5-2-5-1.3
			c-1.1,0.3-1.7,0.5-2.9,0.8c-4.2,1.2-7.6,5.6-7.6,9.8c0,0,0,0,0,0.1c-2.5,0.7-3.8,1.1-6.3,1.9c-1.1,0.3-2,1.5-2,2.5
			c0,1.1,0.9,1.7,2,1.4c2.5-0.7,3.8-1.1,6.3-1.9c0,2.8,0,4.2,0,7c-3.3,1-5,1.5-8.3,2.4c-1.1,0.3-2,1.5-2,2.5c0,1.1,0.9,1.7,2,1.4
			c3.3-1,5-1.5,8.3-2.4c0,12,0,24,0,36c0,1,1.1,1.8,2.2,1.5c4.4-1.3,6.6-1.9,11-3.2c1.2-0.3,2.3-1.6,2.3-2.8
			c0.3-9.8,0.6-19.6,0.9-29.4c0.1,0.1,0.4,0.6,1,1.3c0.6,0.8,1.3,1.6,2.2,2.7c0.9,1.1,1.9,2.3,2.8,3.5c1,1.3,2.4,3,4,5
			c0.7,0.8,1.3,1.7,2,2.5c-2.7,0.8-4.1,1.2-6.8,1.9C468,237.9,467.1,239,467.1,240.1z"/>
	</g>
	<path class="st1" d="M289.7,102.9c12.5-3.1,24.9-6.4,37.3-9.7c0.5-0.1,1-0.7,1-1.2s-0.4-0.9-1-0.7c-12.4,3.4-24.8,6.6-37.3,9.7
		c-0.5,0.1-1,0.7-1,1.2C288.7,102.7,289.1,103.1,289.7,102.9z"/>
	<path class="st1" d="M298.3,139c0,0.5,0.4,0.9,1,0.7c12.5-3.2,24.9-6.5,37.3-10c0.5-0.2,1-0.7,1-1.3c0-0.5-0.4-0.9-1-0.7
		c-12.4,3.4-24.8,6.8-37.3,10C298.8,137.9,298.3,138.5,298.3,139z"/>
	<path class="st1" d="M337.6,96.2c12.4-3.5,24.9-7,37.3-10.6c0.5-0.2,1-0.7,1-1.3c0-0.5-0.4-0.9-1-0.7c-12.4,3.6-24.8,7.2-37.3,10.6
		c-0.5,0.2-1,0.7-1,1.3C336.6,96,337.1,96.4,337.6,96.2z"/>
	<path class="st1" d="M367,63.3c12.4-3.6,24.9-7.3,37.3-10.9c0.5-0.2,1-0.7,1-1.3c0-0.5-0.4-0.9-1-0.7c-12.4,3.7-24.8,7.3-37.3,10.9
		c-0.5,0.2-1,0.7-1,1.3C366.1,63.1,366.5,63.4,367,63.3z"/>
	<path class="st1" d="M387.4,106.2c12.4-3.7,24.8-7.3,37.3-11c0.5-0.2,1-0.7,1-1.3c0-0.5-0.4-0.9-1-0.7c-12.4,3.7-24.8,7.3-37.3,11
		c-0.5,0.2-1,0.7-1,1.3C386.4,106.1,386.9,106.4,387.4,106.2z"/>
	<path class="st1" d="M421.4,146.5c0-0.5-0.4-0.9-1-0.7c-12.4,3.7-24.8,7.3-37.3,11c-0.5,0.2-1,0.7-1,1.3s0.4,0.9,1,0.7
		c12.4-3.6,24.9-7.3,37.3-11C421,147.6,421.4,147,421.4,146.5z"/>
	<path class="st1" d="M338.7,211.8c0-0.5-0.4-0.9-1-0.7c-8.2,2.3-12.3,3.4-20.5,5.6c-0.5,0.1-1,0.7-1,1.2c0,0.5,0.4,0.9,1,0.7
		c8.2-2.2,12.3-3.3,20.5-5.6C338.2,213,338.7,212.4,338.7,211.8z"/>
	<path class="st1" d="M357,155.8c0-0.5-0.4-0.9-1-0.7c-12.4,3.5-24.8,7-37.3,10.4c-0.5,0.1-1,0.7-1,1.2c0,0.5,0.4,0.9,1,0.7
		c12.5-3.3,24.9-6.8,37.3-10.4C356.5,156.9,357,156.4,357,155.8z"/>
	<path class="st1" d="M387.2,129.2c12.4-3.7,24.8-7.3,37.3-11c0.5-0.2,1-0.7,1-1.3c0-0.5-0.4-0.9-1-0.7c-12.4,3.7-24.8,7.3-37.3,11
		c-0.5,0.2-1,0.7-1,1.3C386.2,129.1,386.6,129.4,387.2,129.2z"/>
	<path class="st1" d="M437.6,182.8c0,0.5,0.4,0.9,1,0.7c12.4-3.6,24.8-7.2,37.3-10.7c0.5-0.2,1-0.7,1-1.3s-0.4-0.9-1-0.7
		c-12.4,3.5-24.9,7.1-37.3,10.7C438.1,181.7,437.6,182.3,437.6,182.8z"/>
	<path class="st1" d="M444.5,157.2c0,0.5,0.4,0.9,1,0.7c7.1-2.1,10.6-3.1,17.7-5.1c0.5-0.2,1-0.7,1-1.3s-0.4-0.9-1-0.7
		c-7.1,2-10.6,3-17.7,5.1C445,156.1,444.5,156.6,444.5,157.2z"/>
	<path class="st1" d="M449.9,129.4c8.8-2.5,13.1-3.8,21.9-6.3c0.5-0.2,1-0.7,1-1.3c0-0.5-0.4-0.9-1-0.7c-8.8,2.5-13.1,3.7-21.9,6.3
		c-0.5,0.2-1,0.7-1,1.3S449.4,129.6,449.9,129.4z"/>
	<path class="st1" d="M418.6,136.6c0,0.5,0.4,0.9,1,0.7c9-2.7,13.6-4,22.6-6.6c0.5-0.2,1-0.7,1-1.3c0-0.5-0.4-0.9-1-0.7
		c-9,2.6-13.6,4-22.6,6.6C419.1,135.5,418.6,136.1,418.6,136.6z"/>
	<path class="st1" d="M378.9,248.8c-9,2.6-13.6,4-22.6,6.5c-0.5,0.2-1,0.7-1,1.3c0,0.5,0.4,0.9,1,0.7c9-2.6,13.6-3.9,22.6-6.5
		c0.5-0.2,1-0.7,1-1.3S379.5,248.7,378.9,248.8z"/>
	<path class="st1" d="M426.9,223.6c0-0.5-0.4-0.9-1-0.7c-9,2.7-13.6,4-22.6,6.7c-0.5,0.2-1,0.7-1,1.3c0,0.5,0.4,0.9,1,0.7
		c9-2.7,13.6-4,22.6-6.7C426.5,224.7,426.9,224.1,426.9,223.6z"/>
	<path class="st1" d="M436.1,212c0,0.5,0.4,0.9,1,0.7c9-2.7,13.6-4,22.6-6.6c0.5-0.2,1-0.7,1-1.3c0-0.5-0.4-0.9-1-0.7
		c-9,2.6-13.6,3.9-22.6,6.6C436.5,210.8,436.1,211.4,436.1,212z"/>
	<path class="st1" d="M494.9,198.3c0.5-0.1,1-0.7,1-1.2c0-0.5-0.4-0.9-1-0.7c-9,2.5-13.6,3.7-22.6,6.3c-0.5,0.2-1,0.7-1,1.3
		c0,0.5,0.4,0.9,1,0.7C481.4,202,485.9,200.7,494.9,198.3z"/>
	<path class="st1" d="M440,258.8c0-0.5-0.4-0.9-1-0.7c-9,2.6-13.6,4-22.6,6.7c-0.5,0.2-1,0.7-1,1.3c0,0.5,0.4,0.9,1,0.7
		c9-2.7,13.6-4,22.6-6.7C439.6,259.9,440,259.3,440,258.8z"/>
	<path class="st1" d="M329.5,355.4c-9,2.5-13.6,3.7-22.6,6.1c-0.5,0.1-1,0.7-1,1.2c0,0.5,0.4,0.9,1,0.7c9-2.4,13.6-3.6,22.6-6.1
		c0.5-0.1,1-0.7,1-1.3C330.4,355.6,330,355.3,329.5,355.4z"/>
	<path class="st1" d="M350.1,300.8c-9,2.6-13.6,3.8-22.6,6.3c-0.5,0.1-1,0.7-1,1.2c0,0.5,0.4,0.9,1,0.7c9-2.5,13.6-3.7,22.6-6.3
		c0.5-0.2,1-0.7,1-1.3C351.1,301,350.6,300.6,350.1,300.8z"/>
	<path class="st1" d="M315.8,343c0-0.5-0.4-0.9-1-0.7c-9,2.4-13.6,3.6-22.6,5.8c-0.5,0.1-1,0.7-1,1.2c0,0.5,0.4,0.9,1,0.7
		c9-2.3,13.6-3.4,22.6-5.8C315.4,344.1,315.8,343.6,315.8,343z"/>
	<path class="st1" d="M265.1,313.6c-9,2.1-13.6,3-22.6,4.9c-0.5,0.1-1,0.6-1,1.2c0,0.5,0.4,0.9,1,0.8c9-1.8,13.6-2.8,22.6-4.9
		c0.5-0.1,1-0.7,1-1.2C266.1,313.8,265.7,313.5,265.1,313.6z"/>
	<path class="st1" d="M312.3,306.9c0-0.5-0.4-0.9-1-0.7c-9,2.4-13.6,3.5-22.6,5.8c-0.5,0.1-1,0.7-1,1.2c0,0.5,0.4,0.9,1,0.7
		c9-2.2,13.6-3.4,22.6-5.8C311.9,308,312.3,307.4,312.3,306.9z"/>
	<path class="st1" d="M239.5,363c0-0.5-0.4-0.9-1-0.8c-9,1.8-13.6,2.6-22.6,4.2c-0.5,0.1-1,0.6-1,1.1c0,0.5,0.4,0.9,1,0.8
		c9-1.6,13.6-2.4,22.6-4.2C239.1,364.1,239.5,363.6,239.5,363z"/>
	<path class="st1" d="M243.4,350.7c-9,1.9-13.6,2.7-22.6,4.3c-0.5,0.1-1,0.6-1,1.2c0,0.5,0.4,0.9,1,0.8c9-1.6,13.6-2.5,22.6-4.3
		c0.5-0.1,1-0.6,1-1.2C244.4,350.9,244,350.6,243.4,350.7z"/>
	<path class="st1" d="M205.7,383.6c-9,1.4-13.6,2.1-22.6,3.2c-0.5,0.1-1,0.6-1,1.1s0.4,0.9,1,0.9c9-1.1,13.6-1.8,22.6-3.2
		c0.5-0.1,1-0.6,1-1.1S206.2,383.6,205.7,383.6z"/>
	<path class="st1" d="M177,323.3c-9,1.1-13.6,1.5-22.6,2.3c-0.5,0-1,0.5-1,1.1s0.4,0.9,1,0.9c9-0.7,13.6-1.2,22.6-2.3
		c0.5-0.1,1-0.6,1-1.1S177.6,323.2,177,323.3z"/>
	<path class="st1" d="M175.8,334.6c-9,1-13.6,1.5-22.6,2.2c-0.5,0-1,0.5-1,1.1c0,0.5,0.4,0.9,1,0.9c9-0.7,13.6-1.2,22.6-2.2
		c0.5-0.1,1-0.6,1-1.1C176.8,334.9,176.4,334.5,175.8,334.6z"/>
	<path class="st1" d="M175.2,365.7c-9,1-13.6,1.5-22.6,2.2c-0.5,0-1,0.5-1,1.1c0,0.5,0.4,0.9,1,0.9c9-0.7,13.6-1.2,22.6-2.2
		c0.5-0.1,1-0.6,1-1.1C176.2,366,175.7,365.6,175.2,365.7z"/>
	<path class="st1" d="M138.1,373.8c-9,0.5-13.6,0.6-22.6,0.7c-0.5,0-1,0.4-1,1c0,0.5,0.4,1,1,1c9-0.1,13.6-0.3,22.6-0.7
		c0.5,0,1-0.5,1-1C139.1,374.1,138.6,373.7,138.1,373.8z"/>
	<path class="st1" d="M433.9,305.3c-9,2.7-13.6,4-22.6,6.7c-0.5,0.2-1,0.7-1,1.3c0,0.5,0.4,0.9,1,0.7c9-2.7,13.6-4,22.6-6.7
		c0.5-0.2,1-0.7,1-1.3C434.9,305.5,434.4,305.2,433.9,305.3z"/>
	<path class="st1" d="M397.7,285c0-0.5-0.4-0.9-1-0.7c-9,2.7-13.6,4-22.6,6.6c-0.5,0.2-1,0.7-1,1.3c0,0.5,0.4,0.9,1,0.7
		c9-2.6,13.6-4,22.6-6.6C397.2,286.1,397.7,285.6,397.7,285z"/>
	<path class="st1" d="M402.1,288.6c-9,2.7-13.6,4-22.6,6.7c-0.5,0.2-1,0.7-1,1.3s0.4,0.9,1,0.7c9-2.6,13.6-4,22.6-6.7
		c0.5-0.2,1-0.7,1-1.3S402.7,288.4,402.1,288.6z"/>
	<path class="st1" d="M459.2,315.3c-9,2.6-13.6,3.9-22.6,6.6c-0.5,0.2-1,0.7-1,1.3c0,0.5,0.4,0.9,1,0.7c9-2.7,13.6-4,22.6-6.6
		c0.5-0.2,1-0.7,1-1.3C460.2,315.5,459.8,315.2,459.2,315.3z"/>
	<path class="st1" d="M500.2,299.1c-9,2.4-13.6,3.7-22.6,6.2c-0.5,0.2-1,0.7-1,1.3c0,0.5,0.4,0.9,1,0.7c9-2.5,13.6-3.8,22.6-6.2
		c0.5-0.1,1-0.7,1-1.2C501.2,299.3,500.8,299,500.2,299.1z"/>
	<path class="st1" d="M471.9,270.2c-9,2.6-13.6,3.9-22.6,6.5c-0.5,0.2-1,0.7-1,1.3c0,0.5,0.4,0.9,1,0.7c9-2.6,13.6-3.9,22.6-6.5
		c0.5-0.2,1-0.7,1-1.3C472.9,270.4,472.5,270,471.9,270.2z"/>
	<path class="st1" d="M492.9,181.5c9-2.5,13.6-3.7,22.6-6c0.5-0.1,1-0.7,1-1.2c0-0.5-0.4-0.9-1-0.7c-9,2.3-13.6,3.6-22.6,6
		c-0.5,0.1-1,0.7-1,1.2C491.9,181.4,492.3,181.7,492.9,181.5z"/>
	<path class="st1" d="M499.8,198c0,0.5,0.4,0.9,1,0.7c9-2.4,13.6-3.6,22.6-5.9c0.5-0.1,1-0.7,1-1.2c0-0.5-0.4-0.9-1-0.7
		c-9,2.3-13.6,3.5-22.6,5.9C500.2,196.9,499.8,197.4,499.8,198z"/>
	<path class="st1" d="M531.6,182.7c9-2.2,13.6-3.3,22.6-5.4c0.5-0.1,1-0.7,1-1.2s-0.4-0.9-1-0.8c-9,2.1-13.6,3.1-22.6,5.4
		c-0.5,0.1-1,0.7-1,1.2S531.1,182.8,531.6,182.7z"/>
	<path class="st1" d="M556.5,218.9c-9,2-13.6,3.1-22.6,5.3c-0.5,0.1-1,0.7-1,1.2c0,0.5,0.4,0.9,1,0.7c9-2.2,13.6-3.3,22.6-5.3
		c0.5-0.1,1-0.7,1-1.2C557.5,219.1,557,218.7,556.5,218.9z"/>
	<path class="st1" d="M582.6,204.4c-9,1.8-13.6,2.7-22.6,4.8c-0.5,0.1-1,0.7-1,1.2c0,0.5,0.4,0.9,1,0.8c9-2,13.6-3,22.6-4.8
		c0.5-0.1,1-0.6,1-1.2C583.6,204.6,583.2,204.3,582.6,204.4z"/>
	<path class="st1" d="M612.8,193c-9,1.5-13.6,2.3-22.6,4c-0.5,0.1-1,0.6-1,1.2s0.4,0.9,1,0.8c9-1.7,13.6-2.5,22.6-4
		c0.5-0.1,1-0.6,1-1.1S613.3,192.9,612.8,193z"/>
	<path class="st1" d="M608.7,188.2c0-0.5-0.4-0.9-1-0.8c-9,1.5-13.6,2.3-22.6,4.1c-0.5,0.1-1,0.6-1,1.2c0,0.5,0.4,0.9,1,0.8
		c9-1.8,13.6-2.6,22.6-4.1C608.3,189.3,608.7,188.8,608.7,188.2z"/>
	<path class="st1" d="M619.9,145.9c4-0.6,6-0.9,10-1.4c0.5-0.1,1-0.6,1-1.1c0-0.5-0.4-0.9-1-0.8c-4,0.5-6,0.8-10,1.4
		c-0.5,0.1-1,0.6-1,1.1C618.9,145.6,619.3,146,619.9,145.9z"/>
	<path class="st1" d="M641,188.2c-9,1.1-13.6,1.7-22.6,3.1c-0.5,0.1-1,0.6-1,1.1s0.4,0.9,1,0.8c9-1.4,13.6-2,22.6-3.1
		c0.5-0.1,1-0.6,1-1.1S641.6,188.2,641,188.2z"/>
	<path class="st1" d="M684,189.3c-9,0.5-13.6,0.8-22.6,1.6c-0.5,0-1,0.5-1,1.1c0,0.5,0.4,0.9,1,0.9c9-0.8,13.6-1.1,22.6-1.6
		c0.5,0,1-0.5,1-1C685,189.7,684.6,189.3,684,189.3z"/>
	<path class="st1" d="M666,164.2c0-0.5-0.4-0.9-1-0.9c-9,0.7-13.6,1.2-22.6,2.3c-0.5,0.1-1,0.6-1,1.1s0.4,0.9,1,0.9
		c9-1.1,13.6-1.5,22.6-2.3C665.6,165.3,666,164.8,666,164.2z"/>
	<path class="st1" d="M353.9,229.4c9-2.6,13.6-3.9,22.6-6.5c0.5-0.2,1-0.7,1-1.3c0-0.5-0.4-0.9-1-0.7c-9,2.6-13.6,4-22.6,6.5
		c-0.5,0.2-1,0.7-1,1.3C352.9,229.2,353.4,229.5,353.9,229.4z"/>
	<path class="st1" d="M461.1,215.6c0-0.5-0.4-0.9-1-0.7c-9,2.6-13.6,3.9-22.6,6.6c-0.5,0.2-1,0.7-1,1.3s0.4,0.9,1,0.7
		c9-2.7,13.6-4,22.6-6.6C460.6,216.7,461.1,216.2,461.1,215.6z"/>
	<path class="st1" d="M468.9,242.5c0,0.5,0.4,0.9,1,0.7c9-2.6,13.6-3.8,22.6-6.3c0.5-0.1,1-0.7,1-1.2c0-0.5-0.4-0.9-1-0.7
		c-9,2.5-13.6,3.7-22.6,6.3C469.4,241.4,468.9,242,468.9,242.5z"/>
	<path class="st1" d="M190.3,341.8c2.4-0.3,3.6-0.5,6-0.8c0.5-0.1,1-0.6,1-1.1c0-0.5-0.4-0.9-1-0.8c-2.4,0.3-3.6,0.5-6,0.8
		c-0.5,0.1-1,0.6-1,1.1C189.3,341.5,189.7,341.8,190.3,341.8z"/>
	<path class="st1" d="M192.2,347.1c0,0.5,0.4,0.9,1,0.8c2.4-0.3,3.6-0.5,6-0.9c0.5-0.1,1-0.6,1-1.1c0-0.5-0.4-0.9-1-0.8
		c-2.4,0.4-3.6,0.5-6,0.9C192.7,346,192.2,346.5,192.2,347.1z"/>
	<path class="st1" d="M126.1,348.7c2.4-0.1,3.6-0.1,6-0.2c0.5,0,1-0.5,1-1c0-0.5-0.4-1-1-0.9c-2.4,0.1-3.6,0.1-6,0.2
		c-0.5,0-1,0.5-1,1C125.1,348.3,125.6,348.7,126.1,348.7z"/>
	<path class="st1" d="M128.5,343.8c2.4-0.1,3.6-0.1,6-0.2c0.5,0,1-0.5,1-1c0-0.5-0.4-1-1-0.9c-2.4,0.1-3.6,0.2-6,0.2
		c-0.5,0-1,0.5-1,1C127.5,343.4,127.9,343.8,128.5,343.8z"/>
	<path class="st1" d="M628.4,157.7c0,0.5,0.4,0.9,1,0.8c4-0.6,6-0.8,10-1.3c0.5-0.1,1-0.6,1-1.1s-0.4-0.9-1-0.9c-4,0.5-6,0.8-10,1.3
		C628.8,156.7,628.4,157.2,628.4,157.7z"/>
	<path class="st1" d="M700.7,173c-4,0.1-6,0.1-10,0.3c-0.5,0-1,0.5-1,1c0,0.5,0.4,1,1,0.9c4-0.2,6-0.2,10-0.3c0.5,0,1-0.5,1-1
		C701.7,173.5,701.3,173,700.7,173z"/>
	<path class="st1" d="M697.3,203.5c-4,0.1-6,0.2-10,0.3c-0.5,0-1,0.5-1,1c0,0.5,0.4,1,1,0.9c4-0.2,6-0.2,10-0.3c0.5,0,1-0.5,1-1
		C698.3,203.9,697.8,203.5,697.3,203.5z"/>
	<path class="st1" d="M583.3,175.1c4-0.8,6-1.2,10-1.9c0.5-0.1,1-0.6,1-1.2c0-0.5-0.4-0.9-1-0.8c-4,0.7-6,1.1-10,1.9
		c-0.5,0.1-1,0.6-1,1.2C582.3,174.8,582.8,175.2,583.3,175.1z"/>
	<path class="st1" d="M531.2,204.6c0-0.5-0.4-0.9-1-0.7c-4,1-6,1.5-10,2.5c-0.5,0.1-1,0.7-1,1.2c0,0.5,0.4,0.9,1,0.7
		c4-1,6-1.5,10-2.5C530.7,205.7,531.2,205.1,531.2,204.6z"/>
	<path class="st1" d="M501.9,223.5c0-0.5-0.4-0.9-1-0.7c-4,1.1-6,1.6-10,2.7c-0.5,0.1-1,0.7-1,1.3c0,0.5,0.4,0.9,1,0.7
		c4-1.1,6-1.6,10-2.7C501.4,224.6,501.9,224,501.9,223.5z"/>
	<path class="st1" d="M501.7,261c-4,1.1-6,1.6-10,2.7c-0.5,0.1-1,0.7-1,1.2c0,0.5,0.4,0.9,1,0.7c4-1.1,6-1.6,10-2.7
		c0.5-0.1,1-0.7,1-1.2C502.7,261.2,502.3,260.8,501.7,261z"/>
	<path class="st1" d="M494.8,117.7c4-1.1,6-1.6,10-2.7c0.5-0.1,1-0.7,1-1.2s-0.4-0.9-1-0.7c-4,1.1-6,1.6-10,2.7
		c-0.5,0.1-1,0.7-1,1.2S494.2,117.9,494.8,117.7z"/>
	<path class="st1" d="M433.4,158.7c0,0.5,0.4,0.9,1,0.7c4-1.2,6-1.8,10-2.9c0.5-0.2,1-0.7,1-1.3c0-0.5-0.4-0.9-1-0.7
		c-4,1.2-6,1.8-10,2.9C433.9,157.5,433.4,158.1,433.4,158.7z"/>
	<path class="st1" d="M441.5,195.2c-4,1.2-6,1.8-10,2.9c-0.5,0.2-1,0.7-1,1.3c0,0.5,0.4,0.9,1,0.7c4-1.2,6-1.8,10-2.9
		c0.5-0.2,1-0.7,1-1.3C442.5,195.3,442,195,441.5,195.2z"/>
	<path class="st1" d="M401.2,214.6c-0.5,0.2-1,0.7-1,1.3c0,0.5,0.4,0.9,1,0.7c4-1.2,6-1.8,10-3c0.5-0.2,1-0.7,1-1.3
		c0-0.5-0.4-0.9-1-0.7C407.2,212.8,405.2,213.4,401.2,214.6z"/>
	<path class="st1" d="M385.7,338.9c-4,1.2-6,1.8-10,2.9c-0.5,0.2-1,0.7-1,1.3c0,0.5,0.4,0.9,1,0.7c4-1.2,6-1.8,10-2.9
		c0.5-0.2,1-0.7,1-1.3C386.7,339,386.3,338.7,385.7,338.9z"/>
	<path class="st1" d="M436.6,299.1c4-1.2,6-1.8,10-2.9c0.5-0.2,1-0.7,1-1.3c0-0.5-0.4-0.9-1-0.7c-4,1.2-6,1.7-10,2.9
		c-0.5,0.2-1,0.7-1,1.3C435.6,298.9,436.1,299.2,436.6,299.1z"/>
	<path class="st1" d="M389.6,333.8c-4,1.2-6,1.8-10,2.9c-0.5,0.2-1,0.7-1,1.3c0,0.5,0.4,0.9,1,0.7c4-1.2,6-1.8,10-2.9
		c0.5-0.2,1-0.7,1-1.3C390.6,333.9,390.2,333.6,389.6,333.8z"/>
	<path class="st1" d="M310.8,327.5c-0.5,0.1-1,0.7-1,1.2c0,0.5,0.4,0.9,1,0.7c4-1.1,6-1.6,10-2.7c0.5-0.1,1-0.7,1-1.2
		c0-0.5-0.4-0.9-1-0.7C316.8,325.9,314.8,326.5,310.8,327.5z"/>
	<path class="st1" d="M240.5,379.9c-4,0.8-6,1.2-10,2c-0.5,0.1-1,0.6-1,1.2s0.4,0.9,1,0.8c4-0.8,6-1.2,10-2c0.5-0.1,1-0.6,1-1.2
		S241.1,379.8,240.5,379.9z"/>
	<path class="st1" d="M423.1,71.4c4-1.2,6-1.8,10-2.9c0.5-0.2,1-0.7,1-1.3c0-0.5-0.4-0.9-1-0.7c-4,1.2-6,1.8-10,2.9
		c-0.5,0.2-1,0.7-1,1.3C422.1,71.2,422.6,71.5,423.1,71.4z"/>
	<path class="st1" d="M378.3,115.7c0.5-0.2,1-0.7,1-1.3c0-0.5-0.4-0.9-1-0.7c-4,1.2-6,1.7-10,2.9c-0.5,0.2-1,0.7-1,1.3
		c0,0.5,0.4,0.9,1,0.7C372.3,117.5,374.3,116.9,378.3,115.7z"/>
	<path class="st1" d="M382.3,119.9c0-0.5-0.4-0.9-1-0.7c-4,1.2-6,1.8-10,2.9c-0.5,0.2-1,0.7-1,1.3c0,0.5,0.4,0.9,1,0.7
		c4-1.2,6-1.7,10-2.9C381.9,121,382.3,120.5,382.3,119.9z"/>
	<path class="st1" d="M390.7,195.7c0-0.5-0.4-0.9-1-0.7c-4,1.2-6,1.8-10,2.9c-0.5,0.2-1,0.7-1,1.3c0,0.5,0.4,0.9,1,0.7
		c4-1.2,6-1.8,10-2.9C390.3,196.8,390.7,196.2,390.7,195.7z"/>
</g>
</svg>
